<mxfile host="Electron" modified="2024-02-09T16:50:20.943Z" agent="Mozilla/5.0 (Macintosh; Intel Mac OS X 10_15_7) AppleWebKit/537.36 (KHTML, like Gecko) draw.io/23.0.2 Chrome/120.0.6099.109 Electron/28.1.0 Safari/537.36" etag="B4klML0aakZQko2-ONSD" version="23.0.2" type="device">
  <diagram name="Page-1" id="8LWsrjYkg-_z5xNzG0Fz">
    <mxGraphModel dx="1434" dy="854" grid="1" gridSize="10" guides="1" tooltips="1" connect="1" arrows="1" fold="1" page="1" pageScale="1" pageWidth="850" pageHeight="1100" math="0" shadow="0">
      <root>
        <mxCell id="0" />
        <mxCell id="1" parent="0" />
        <mxCell id="T_kCZROGa21OV2oRWqR5-6" style="edgeStyle=orthogonalEdgeStyle;rounded=0;orthogonalLoop=1;jettySize=auto;html=1;" parent="1" source="gGs5ee88PbEpNVjYQHtr-1" target="T_kCZROGa21OV2oRWqR5-1" edge="1">
          <mxGeometry relative="1" as="geometry" />
        </mxCell>
        <mxCell id="T_kCZROGa21OV2oRWqR5-9" value="POST taxi/" style="edgeLabel;html=1;align=center;verticalAlign=middle;resizable=0;points=[];" parent="T_kCZROGa21OV2oRWqR5-6" vertex="1" connectable="0">
          <mxGeometry x="-0.6115" y="2" relative="1" as="geometry">
            <mxPoint x="23" y="-8" as="offset" />
          </mxGeometry>
        </mxCell>
        <object label="Taxi" id="gGs5ee88PbEpNVjYQHtr-1">
          <mxCell style="shape=umlActor;verticalLabelPosition=bottom;verticalAlign=top;html=1;outlineConnect=0;" parent="1" vertex="1">
            <mxGeometry x="60" y="90" width="30" height="60" as="geometry" />
          </mxCell>
        </object>
        <mxCell id="T_kCZROGa21OV2oRWqR5-7" style="edgeStyle=orthogonalEdgeStyle;rounded=0;orthogonalLoop=1;jettySize=auto;html=1;" parent="1" source="T_kCZROGa21OV2oRWqR5-1" target="T_kCZROGa21OV2oRWqR5-2" edge="1">
          <mxGeometry relative="1" as="geometry">
            <Array as="points">
              <mxPoint x="330" y="135" />
              <mxPoint x="330" y="144" />
            </Array>
          </mxGeometry>
        </mxCell>
        <mxCell id="T_kCZROGa21OV2oRWqR5-1" value="API Gateway&lt;br&gt;" style="sketch=0;points=[[0,0,0],[0.25,0,0],[0.5,0,0],[0.75,0,0],[1,0,0],[0,1,0],[0.25,1,0],[0.5,1,0],[0.75,1,0],[1,1,0],[0,0.25,0],[0,0.5,0],[0,0.75,0],[1,0.25,0],[1,0.5,0],[1,0.75,0]];outlineConnect=0;fontColor=#232F3E;fillColor=#E7157B;strokeColor=#ffffff;dashed=0;verticalLabelPosition=bottom;verticalAlign=top;align=center;html=1;fontSize=12;fontStyle=0;aspect=fixed;shape=mxgraph.aws4.resourceIcon;resIcon=mxgraph.aws4.api_gateway;" parent="1" vertex="1">
          <mxGeometry x="210" y="100" width="70" height="70" as="geometry" />
        </mxCell>
        <mxCell id="T_kCZROGa21OV2oRWqR5-8" style="edgeStyle=orthogonalEdgeStyle;rounded=0;orthogonalLoop=1;jettySize=auto;html=1;" parent="1" source="T_kCZROGa21OV2oRWqR5-2" edge="1">
          <mxGeometry relative="1" as="geometry">
            <mxPoint x="540" y="139.0999999999999" as="targetPoint" />
          </mxGeometry>
        </mxCell>
        <mxCell id="T_kCZROGa21OV2oRWqR5-2" value="AWS Lambda&lt;br&gt;" style="sketch=0;outlineConnect=0;fontColor=#232F3E;gradientColor=none;fillColor=#ED7100;strokeColor=none;dashed=0;verticalLabelPosition=bottom;verticalAlign=top;align=center;html=1;fontSize=12;fontStyle=0;aspect=fixed;pointerEvents=1;shape=mxgraph.aws4.lambda_function;" parent="1" vertex="1">
          <mxGeometry x="380" y="120" width="48" height="48" as="geometry" />
        </mxCell>
        <mxCell id="T_kCZROGa21OV2oRWqR5-10" value="&lt;h4 style=&quot;line-height: 50%;&quot;&gt;Register Taxi&lt;/h4&gt;" style="text;html=1;align=center;verticalAlign=middle;resizable=0;points=[];autosize=1;strokeColor=none;fillColor=lightgrey;" parent="1" vertex="1">
          <mxGeometry x="40" y="30" width="100" height="50" as="geometry" />
        </mxCell>
        <mxCell id="T_kCZROGa21OV2oRWqR5-11" style="edgeStyle=orthogonalEdgeStyle;rounded=0;orthogonalLoop=1;jettySize=auto;html=1;" parent="1" source="T_kCZROGa21OV2oRWqR5-13" target="T_kCZROGa21OV2oRWqR5-15" edge="1">
          <mxGeometry relative="1" as="geometry" />
        </mxCell>
        <mxCell id="T_kCZROGa21OV2oRWqR5-12" value="POST user/" style="edgeLabel;html=1;align=center;verticalAlign=middle;resizable=0;points=[];" parent="T_kCZROGa21OV2oRWqR5-11" vertex="1" connectable="0">
          <mxGeometry x="-0.6115" y="2" relative="1" as="geometry">
            <mxPoint x="23" y="-8" as="offset" />
          </mxGeometry>
        </mxCell>
        <object label="User" id="T_kCZROGa21OV2oRWqR5-13">
          <mxCell style="shape=umlActor;verticalLabelPosition=bottom;verticalAlign=top;html=1;outlineConnect=0;" parent="1" vertex="1">
            <mxGeometry x="50" y="245" width="30" height="60" as="geometry" />
          </mxCell>
        </object>
        <mxCell id="T_kCZROGa21OV2oRWqR5-14" style="edgeStyle=orthogonalEdgeStyle;rounded=0;orthogonalLoop=1;jettySize=auto;html=1;" parent="1" source="T_kCZROGa21OV2oRWqR5-15" target="T_kCZROGa21OV2oRWqR5-17" edge="1">
          <mxGeometry relative="1" as="geometry" />
        </mxCell>
        <mxCell id="T_kCZROGa21OV2oRWqR5-15" value="API Gateway&lt;br&gt;" style="sketch=0;points=[[0,0,0],[0.25,0,0],[0.5,0,0],[0.75,0,0],[1,0,0],[0,1,0],[0.25,1,0],[0.5,1,0],[0.75,1,0],[1,1,0],[0,0.25,0],[0,0.5,0],[0,0.75,0],[1,0.25,0],[1,0.5,0],[1,0.75,0]];outlineConnect=0;fontColor=#232F3E;fillColor=#E7157B;strokeColor=#ffffff;dashed=0;verticalLabelPosition=bottom;verticalAlign=top;align=center;html=1;fontSize=12;fontStyle=0;aspect=fixed;shape=mxgraph.aws4.resourceIcon;resIcon=mxgraph.aws4.api_gateway;" parent="1" vertex="1">
          <mxGeometry x="200" y="285" width="48" height="48" as="geometry" />
        </mxCell>
        <mxCell id="T_kCZROGa21OV2oRWqR5-16" style="edgeStyle=orthogonalEdgeStyle;rounded=0;orthogonalLoop=1;jettySize=auto;html=1;" parent="1" source="T_kCZROGa21OV2oRWqR5-17" edge="1">
          <mxGeometry relative="1" as="geometry">
            <mxPoint x="530" y="294.0999999999999" as="targetPoint" />
          </mxGeometry>
        </mxCell>
        <mxCell id="T_kCZROGa21OV2oRWqR5-17" value="AWS Lambda&lt;br&gt;" style="sketch=0;outlineConnect=0;fontColor=#232F3E;gradientColor=none;fillColor=#ED7100;strokeColor=none;dashed=0;verticalLabelPosition=bottom;verticalAlign=top;align=center;html=1;fontSize=12;fontStyle=0;aspect=fixed;pointerEvents=1;shape=mxgraph.aws4.lambda_function;" parent="1" vertex="1">
          <mxGeometry x="370" y="275" width="48" height="48" as="geometry" />
        </mxCell>
        <mxCell id="T_kCZROGa21OV2oRWqR5-19" value="&lt;h4&gt;Register User&lt;/h4&gt;" style="text;html=1;align=center;verticalAlign=middle;resizable=0;points=[];autosize=1;strokeColor=none;fillColor=lightgrey;" parent="1" vertex="1">
          <mxGeometry x="40" y="178" width="100" height="60" as="geometry" />
        </mxCell>
        <mxCell id="T_kCZROGa21OV2oRWqR5-20" value="&lt;h4&gt;Real-time Location Updates&lt;br&gt;&amp;nbsp;from&amp;nbsp; Taxis&lt;/h4&gt;" style="text;html=1;align=center;verticalAlign=middle;resizable=0;points=[];autosize=1;strokeColor=none;fillColor=#CCCCCC;" parent="1" vertex="1">
          <mxGeometry x="30" y="360" width="180" height="70" as="geometry" />
        </mxCell>
        <mxCell id="T_kCZROGa21OV2oRWqR5-21" value="" style="outlineConnect=0;dashed=0;verticalLabelPosition=bottom;verticalAlign=top;align=center;html=1;shape=mxgraph.aws3.ec2;fillColor=#F58534;gradientColor=none;" parent="1" vertex="1">
          <mxGeometry x="48" y="450.5" width="76.5" height="93" as="geometry" />
        </mxCell>
        <mxCell id="T_kCZROGa21OV2oRWqR5-22" value="EC2&lt;br&gt;&amp;nbsp;Instance - &lt;br&gt;Simulates real-time &lt;br&gt;location updates" style="text;html=1;align=center;verticalAlign=middle;resizable=0;points=[];autosize=1;strokeColor=none;fillColor=none;" parent="1" vertex="1">
          <mxGeometry x="60" y="520" width="130" height="70" as="geometry" />
        </mxCell>
        <mxCell id="k4mlrZm2ALqaFIzejcfq-1" style="edgeStyle=orthogonalEdgeStyle;rounded=0;orthogonalLoop=1;jettySize=auto;html=1;" parent="1" source="k4mlrZm2ALqaFIzejcfq-3" target="k4mlrZm2ALqaFIzejcfq-5" edge="1">
          <mxGeometry relative="1" as="geometry">
            <Array as="points">
              <mxPoint x="199" y="687" />
            </Array>
          </mxGeometry>
        </mxCell>
        <mxCell id="k4mlrZm2ALqaFIzejcfq-2" value="GET /rides/find" style="edgeLabel;html=1;align=center;verticalAlign=middle;resizable=0;points=[];" parent="k4mlrZm2ALqaFIzejcfq-1" vertex="1" connectable="0">
          <mxGeometry x="-0.6115" y="2" relative="1" as="geometry">
            <mxPoint x="23" y="-8" as="offset" />
          </mxGeometry>
        </mxCell>
        <object label="User" id="k4mlrZm2ALqaFIzejcfq-3">
          <mxCell style="shape=umlActor;verticalLabelPosition=bottom;verticalAlign=top;html=1;outlineConnect=0;" parent="1" vertex="1">
            <mxGeometry x="25" y="657" width="30" height="60" as="geometry" />
          </mxCell>
        </object>
        <mxCell id="k4mlrZm2ALqaFIzejcfq-4" style="edgeStyle=orthogonalEdgeStyle;rounded=0;orthogonalLoop=1;jettySize=auto;html=1;" parent="1" source="k4mlrZm2ALqaFIzejcfq-5" target="k4mlrZm2ALqaFIzejcfq-7" edge="1">
          <mxGeometry relative="1" as="geometry" />
        </mxCell>
        <mxCell id="k4mlrZm2ALqaFIzejcfq-5" value="API Gateway&lt;br&gt;" style="sketch=0;points=[[0,0,0],[0.25,0,0],[0.5,0,0],[0.75,0,0],[1,0,0],[0,1,0],[0.25,1,0],[0.5,1,0],[0.75,1,0],[1,1,0],[0,0.25,0],[0,0.5,0],[0,0.75,0],[1,0.25,0],[1,0.5,0],[1,0.75,0]];outlineConnect=0;fontColor=#232F3E;fillColor=#E7157B;strokeColor=#ffffff;dashed=0;verticalLabelPosition=bottom;verticalAlign=top;align=center;html=1;fontSize=12;fontStyle=0;aspect=fixed;shape=mxgraph.aws4.resourceIcon;resIcon=mxgraph.aws4.api_gateway;" parent="1" vertex="1">
          <mxGeometry x="175" y="697" width="48" height="48" as="geometry" />
        </mxCell>
        <mxCell id="k4mlrZm2ALqaFIzejcfq-6" style="edgeStyle=orthogonalEdgeStyle;rounded=0;orthogonalLoop=1;jettySize=auto;html=1;" parent="1" source="k4mlrZm2ALqaFIzejcfq-7" edge="1">
          <mxGeometry relative="1" as="geometry">
            <mxPoint x="505" y="706.0999999999999" as="targetPoint" />
          </mxGeometry>
        </mxCell>
        <mxCell id="BRNekYCvMsvYsB4Ajxqk-2" style="edgeStyle=orthogonalEdgeStyle;rounded=0;orthogonalLoop=1;jettySize=auto;html=1;" edge="1" parent="1" source="k4mlrZm2ALqaFIzejcfq-7" target="BRNekYCvMsvYsB4Ajxqk-1">
          <mxGeometry relative="1" as="geometry" />
        </mxCell>
        <mxCell id="k4mlrZm2ALqaFIzejcfq-7" value="AWS Lambda&lt;br&gt;" style="sketch=0;outlineConnect=0;fontColor=#232F3E;gradientColor=none;fillColor=#ED7100;strokeColor=none;dashed=0;verticalLabelPosition=bottom;verticalAlign=top;align=center;html=1;fontSize=12;fontStyle=0;aspect=fixed;pointerEvents=1;shape=mxgraph.aws4.lambda_function;" parent="1" vertex="1">
          <mxGeometry x="345" y="687" width="48" height="48" as="geometry" />
        </mxCell>
        <mxCell id="k4mlrZm2ALqaFIzejcfq-9" value="&lt;h4&gt;User request for Taxis&lt;/h4&gt;" style="text;html=1;align=center;verticalAlign=middle;resizable=0;points=[];autosize=1;strokeColor=none;fillColor=#CCCCCC;" parent="1" vertex="1">
          <mxGeometry x="20" y="590" width="150" height="60" as="geometry" />
        </mxCell>
        <mxCell id="k4mlrZm2ALqaFIzejcfq-14" value="" style="edgeStyle=orthogonalEdgeStyle;rounded=0;orthogonalLoop=1;jettySize=auto;html=1;entryX=0;entryY=0.5;entryDx=0;entryDy=0;entryPerimeter=0;" parent="1" source="T_kCZROGa21OV2oRWqR5-21" target="k4mlrZm2ALqaFIzejcfq-13" edge="1">
          <mxGeometry relative="1" as="geometry">
            <mxPoint x="125" y="497" as="sourcePoint" />
            <mxPoint x="200" y="505" as="targetPoint" />
          </mxGeometry>
        </mxCell>
        <mxCell id="k4mlrZm2ALqaFIzejcfq-16" style="edgeStyle=orthogonalEdgeStyle;rounded=0;orthogonalLoop=1;jettySize=auto;html=1;" parent="1" source="k4mlrZm2ALqaFIzejcfq-13" target="k4mlrZm2ALqaFIzejcfq-15" edge="1">
          <mxGeometry relative="1" as="geometry" />
        </mxCell>
        <mxCell id="k4mlrZm2ALqaFIzejcfq-13" value="Kinesis Data Stream" style="sketch=0;points=[[0,0,0],[0.25,0,0],[0.5,0,0],[0.75,0,0],[1,0,0],[0,1,0],[0.25,1,0],[0.5,1,0],[0.75,1,0],[1,1,0],[0,0.25,0],[0,0.5,0],[0,0.75,0],[1,0.25,0],[1,0.5,0],[1,0.75,0]];outlineConnect=0;fontColor=#232F3E;fillColor=#8C4FFF;strokeColor=#ffffff;dashed=0;verticalLabelPosition=bottom;verticalAlign=top;align=center;html=1;fontSize=12;fontStyle=0;aspect=fixed;shape=mxgraph.aws4.resourceIcon;resIcon=mxgraph.aws4.kinesis_data_streams;" parent="1" vertex="1">
          <mxGeometry x="190" y="461.4" width="78" height="78" as="geometry" />
        </mxCell>
        <mxCell id="k4mlrZm2ALqaFIzejcfq-17" style="edgeStyle=orthogonalEdgeStyle;rounded=0;orthogonalLoop=1;jettySize=auto;html=1;" parent="1" source="k4mlrZm2ALqaFIzejcfq-15" edge="1">
          <mxGeometry relative="1" as="geometry">
            <mxPoint x="520" y="504.5" as="targetPoint" />
          </mxGeometry>
        </mxCell>
        <mxCell id="k4mlrZm2ALqaFIzejcfq-15" value="AWS Lambda&lt;br&gt;" style="sketch=0;outlineConnect=0;fontColor=#232F3E;gradientColor=none;fillColor=#ED7100;strokeColor=none;dashed=0;verticalLabelPosition=bottom;verticalAlign=top;align=center;html=1;fontSize=12;fontStyle=0;aspect=fixed;pointerEvents=1;shape=mxgraph.aws4.lambda_function;" parent="1" vertex="1">
          <mxGeometry x="360" y="461.4" width="52.6" height="52.6" as="geometry" />
        </mxCell>
        <mxCell id="k4mlrZm2ALqaFIzejcfq-18" value="DocumentDB&lt;br&gt;" style="sketch=0;points=[[0,0,0],[0.25,0,0],[0.5,0,0],[0.75,0,0],[1,0,0],[0,1,0],[0.25,1,0],[0.5,1,0],[0.75,1,0],[1,1,0],[0,0.25,0],[0,0.5,0],[0,0.75,0],[1,0.25,0],[1,0.5,0],[1,0.75,0]];outlineConnect=0;fontColor=#232F3E;fillColor=#C925D1;strokeColor=#ffffff;dashed=0;verticalLabelPosition=bottom;verticalAlign=top;align=center;html=1;fontSize=12;fontStyle=0;aspect=fixed;shape=mxgraph.aws4.resourceIcon;resIcon=mxgraph.aws4.documentdb_with_mongodb_compatibility;" parent="1" vertex="1">
          <mxGeometry x="540" y="100" width="78" height="78" as="geometry" />
        </mxCell>
        <mxCell id="k4mlrZm2ALqaFIzejcfq-19" value="DocumentDB&lt;br&gt;" style="sketch=0;points=[[0,0,0],[0.25,0,0],[0.5,0,0],[0.75,0,0],[1,0,0],[0,1,0],[0.25,1,0],[0.5,1,0],[0.75,1,0],[1,1,0],[0,0.25,0],[0,0.5,0],[0,0.75,0],[1,0.25,0],[1,0.5,0],[1,0.75,0]];outlineConnect=0;fontColor=#232F3E;fillColor=#C925D1;strokeColor=#ffffff;dashed=0;verticalLabelPosition=bottom;verticalAlign=top;align=center;html=1;fontSize=12;fontStyle=0;aspect=fixed;shape=mxgraph.aws4.resourceIcon;resIcon=mxgraph.aws4.documentdb_with_mongodb_compatibility;" parent="1" vertex="1">
          <mxGeometry x="530" y="255" width="78" height="78" as="geometry" />
        </mxCell>
        <mxCell id="k4mlrZm2ALqaFIzejcfq-20" value="DocumentDB&lt;br&gt;" style="sketch=0;points=[[0,0,0],[0.25,0,0],[0.5,0,0],[0.75,0,0],[1,0,0],[0,1,0],[0.25,1,0],[0.5,1,0],[0.75,1,0],[1,1,0],[0,0.25,0],[0,0.5,0],[0,0.75,0],[1,0.25,0],[1,0.5,0],[1,0.75,0]];outlineConnect=0;fontColor=#232F3E;fillColor=#C925D1;strokeColor=#ffffff;dashed=0;verticalLabelPosition=bottom;verticalAlign=top;align=center;html=1;fontSize=12;fontStyle=0;aspect=fixed;shape=mxgraph.aws4.resourceIcon;resIcon=mxgraph.aws4.documentdb_with_mongodb_compatibility;" parent="1" vertex="1">
          <mxGeometry x="520" y="458" width="78" height="78" as="geometry" />
        </mxCell>
        <mxCell id="k4mlrZm2ALqaFIzejcfq-21" value="DocumentDB&lt;br&gt;" style="sketch=0;points=[[0,0,0],[0.25,0,0],[0.5,0,0],[0.75,0,0],[1,0,0],[0,1,0],[0.25,1,0],[0.5,1,0],[0.75,1,0],[1,1,0],[0,0.25,0],[0,0.5,0],[0,0.75,0],[1,0.25,0],[1,0.5,0],[1,0.75,0]];outlineConnect=0;fontColor=#232F3E;fillColor=#C925D1;strokeColor=#ffffff;dashed=0;verticalLabelPosition=bottom;verticalAlign=top;align=center;html=1;fontSize=12;fontStyle=0;aspect=fixed;shape=mxgraph.aws4.resourceIcon;resIcon=mxgraph.aws4.documentdb_with_mongodb_compatibility;" parent="1" vertex="1">
          <mxGeometry x="505" y="657" width="78" height="78" as="geometry" />
        </mxCell>
        <mxCell id="BRNekYCvMsvYsB4Ajxqk-5" style="edgeStyle=orthogonalEdgeStyle;rounded=0;orthogonalLoop=1;jettySize=auto;html=1;" edge="1" parent="1" source="BRNekYCvMsvYsB4Ajxqk-1" target="BRNekYCvMsvYsB4Ajxqk-4">
          <mxGeometry relative="1" as="geometry" />
        </mxCell>
        <mxCell id="BRNekYCvMsvYsB4Ajxqk-10" style="edgeStyle=orthogonalEdgeStyle;rounded=0;orthogonalLoop=1;jettySize=auto;html=1;" edge="1" parent="1" source="BRNekYCvMsvYsB4Ajxqk-1" target="k4mlrZm2ALqaFIzejcfq-3">
          <mxGeometry relative="1" as="geometry">
            <Array as="points">
              <mxPoint x="368" y="890" />
              <mxPoint x="40" y="890" />
            </Array>
          </mxGeometry>
        </mxCell>
        <mxCell id="BRNekYCvMsvYsB4Ajxqk-11" value="Selected Taxi details" style="edgeLabel;html=1;align=center;verticalAlign=middle;resizable=0;points=[];" vertex="1" connectable="0" parent="BRNekYCvMsvYsB4Ajxqk-10">
          <mxGeometry x="0.0885" y="4" relative="1" as="geometry">
            <mxPoint as="offset" />
          </mxGeometry>
        </mxCell>
        <mxCell id="BRNekYCvMsvYsB4Ajxqk-1" value="SNS" style="sketch=0;points=[[0,0,0],[0.25,0,0],[0.5,0,0],[0.75,0,0],[1,0,0],[0,1,0],[0.25,1,0],[0.5,1,0],[0.75,1,0],[1,1,0],[0,0.25,0],[0,0.5,0],[0,0.75,0],[1,0.25,0],[1,0.5,0],[1,0.75,0]];outlineConnect=0;fontColor=#232F3E;fillColor=#E7157B;strokeColor=#ffffff;dashed=0;verticalLabelPosition=bottom;verticalAlign=top;align=center;html=1;fontSize=12;fontStyle=0;aspect=fixed;shape=mxgraph.aws4.resourceIcon;resIcon=mxgraph.aws4.sns;" vertex="1" parent="1">
          <mxGeometry x="333" y="790" width="70" height="70" as="geometry" />
        </mxCell>
        <mxCell id="BRNekYCvMsvYsB4Ajxqk-3" value="Selected dirvers based on proximity search" style="text;html=1;align=center;verticalAlign=middle;resizable=0;points=[];autosize=1;strokeColor=none;fillColor=none;" vertex="1" parent="1">
          <mxGeometry x="89" y="815" width="250" height="30" as="geometry" />
        </mxCell>
        <mxCell id="BRNekYCvMsvYsB4Ajxqk-15" style="edgeStyle=orthogonalEdgeStyle;rounded=0;orthogonalLoop=1;jettySize=auto;html=1;" edge="1" parent="1" source="BRNekYCvMsvYsB4Ajxqk-4" target="k4mlrZm2ALqaFIzejcfq-5">
          <mxGeometry relative="1" as="geometry">
            <Array as="points">
              <mxPoint x="199" y="800" />
            </Array>
          </mxGeometry>
        </mxCell>
        <object label="Taxis" id="BRNekYCvMsvYsB4Ajxqk-4">
          <mxCell style="shape=umlActor;verticalLabelPosition=bottom;verticalAlign=top;html=1;outlineConnect=0;" vertex="1" parent="1">
            <mxGeometry x="80" y="790" width="30" height="60" as="geometry" />
          </mxCell>
        </object>
        <mxCell id="BRNekYCvMsvYsB4Ajxqk-8" style="edgeStyle=orthogonalEdgeStyle;rounded=0;orthogonalLoop=1;jettySize=auto;html=1;entryX=0;entryY=0.75;entryDx=0;entryDy=0;entryPerimeter=0;" edge="1" parent="1">
          <mxGeometry relative="1" as="geometry">
            <mxPoint x="85" y="792" as="sourcePoint" />
            <mxPoint x="175" y="735" as="targetPoint" />
            <Array as="points">
              <mxPoint x="60" y="792" />
              <mxPoint x="60" y="735" />
            </Array>
          </mxGeometry>
        </mxCell>
        <mxCell id="BRNekYCvMsvYsB4Ajxqk-9" value="&amp;nbsp;POST /rides/accept" style="edgeLabel;html=1;align=center;verticalAlign=middle;resizable=0;points=[];" vertex="1" connectable="0" parent="BRNekYCvMsvYsB4Ajxqk-8">
          <mxGeometry x="-0.2814" y="-4" relative="1" as="geometry">
            <mxPoint x="25" y="18" as="offset" />
          </mxGeometry>
        </mxCell>
        <mxCell id="BRNekYCvMsvYsB4Ajxqk-16" value="&lt;span style=&quot;color: rgb(0, 0, 0); font-family: Helvetica; font-size: 11px; font-style: normal; font-variant-ligatures: normal; font-variant-caps: normal; font-weight: 400; letter-spacing: normal; orphans: 2; text-align: center; text-indent: 0px; text-transform: none; widows: 2; word-spacing: 0px; -webkit-text-stroke-width: 0px; background-color: rgb(255, 255, 255); text-decoration-thickness: initial; text-decoration-style: initial; text-decoration-color: initial; float: none; display: inline !important;&quot;&gt;POST /rides/start&lt;/span&gt;&lt;br style=&quot;border-color: var(--border-color); color: rgb(0, 0, 0); font-family: Helvetica; font-size: 11px; font-style: normal; font-variant-ligatures: normal; font-variant-caps: normal; font-weight: 400; letter-spacing: normal; orphans: 2; text-align: center; text-indent: 0px; text-transform: none; widows: 2; word-spacing: 0px; -webkit-text-stroke-width: 0px; text-decoration-thickness: initial; text-decoration-style: initial; text-decoration-color: initial;&quot;&gt;&lt;span style=&quot;color: rgb(0, 0, 0); font-family: Helvetica; font-size: 11px; font-style: normal; font-variant-ligatures: normal; font-variant-caps: normal; font-weight: 400; letter-spacing: normal; orphans: 2; text-align: center; text-indent: 0px; text-transform: none; widows: 2; word-spacing: 0px; -webkit-text-stroke-width: 0px; background-color: rgb(255, 255, 255); text-decoration-thickness: initial; text-decoration-style: initial; text-decoration-color: initial; float: none; display: inline !important;&quot;&gt;POST /rides/end&lt;/span&gt;" style="text;whiteSpace=wrap;html=1;" vertex="1" parent="1">
          <mxGeometry x="170" y="770" width="120" height="50" as="geometry" />
        </mxCell>
      </root>
    </mxGraphModel>
  </diagram>
</mxfile>
